 <svg
                viewBox="0 0 200 187"
                xmlns="http://www.w3.org/2000/svg"
                xmlns:xlink="http://www.w3.org/1999/xlink"
              >
                <mask id="mask0" mask-type="alpha">
                  <path
                    fill="#E8DAFF"
                    d="M72.4,-23.5C81.6,4.9,68.5,40.6,43.4,58.6C18.3,76.5,-18.8,76.8,-43.4,59.1C-68,41.4,-80,5.7,-70.7,-22.8C-61.3,-51.3,-30.7,-72.7,0.4,-72.9C31.6,-73,63.1,-51.9,72.4,-23.5Z"
                    transform="translate(100 100)"
                  />
                </mask>
                <g mask="url(#mask0)">
                  <path
                    fill="#cac2d6"
                    d="M72.4,-23.5C81.6,4.9,68.5,40.6,43.4,58.6C18.3,76.5,-18.8,76.8,-43.4,59.1C-68,41.4,-80,5.7,-70.7,-22.8C-61.3,-51.3,-30.7,-72.7,0.4,-72.9C31.6,-73,63.1,-51.9,72.4,-23.5Z"
                    transform="translate(100 100)"
                  />

                  <image class="home__blob-img" xlink:href="../assets/img/profilepic.png" />
                </g>
              </svg>